<svg enable-background="new 0 0 72 72" viewBox="0 0 72 72" xmlns="http://www.w3.org/2000/svg" xmlns:xlink="http://www.w3.org/1999/xlink"><clipPath id="a"><path d="m49 73.2c-.5-2.5-.8-5-.8-7.7 0-5.8 1.3-9.1 3.6-14l-9.4-2.1v.4c0 3-2.4 5.4-5.4 5.4s-5.4-2.4-5.4-5.4c0-.1 0-.3 0-.4l-10.3 2.1c2.3 4.9 3.6 8.2 3.6 14 0 2.6-.3 5.2-.8 7.7"/></clipPath><clipPath id="b"><path d="m49 73.2c-.5-2.5-.8-5-.8-7.7 0-5.8 1.3-9.1 3.6-14l-9.4-2.1v.4c0 3-2.4 5.4-5.4 5.4s-5.4-2.4-5.4-5.4c0-.1 0-.3 0-.4l-10.3 2.1c2.3 4.9 3.6 8.2 3.6 14 0 2.6-.3 5.2-.8 7.7"/></clipPath><clipPath id="c"><path d="m49 73.2c-.5-2.5-.8-5-.8-7.7 0-5.8 1.3-9.1 3.6-14l-9.4-2.1v.4c0 3-2.4 5.4-5.4 5.4s-5.4-2.4-5.4-5.4c0-.1 0-.3 0-.4l-10.3 2.1c2.3 4.9 3.6 8.2 3.6 14 0 2.6-.3 5.2-.8 7.7"/></clipPath><clipPath id="d"><path d="m49 73.2c-.5-2.5-.8-5-.8-7.7 0-5.8 1.3-9.1 3.6-14l-9.4-2.1v.4c0 3-2.4 5.4-5.4 5.4s-5.4-2.4-5.4-5.4c0-.1 0-.3 0-.4l-10.3 2.1c2.3 4.9 3.6 8.2 3.6 14 0 2.6-.3 5.2-.8 7.7"/></clipPath><g stroke="#3c3c3b" stroke-miterlimit="10" stroke-width="2"><path d="m37.4 4.6c-.2 0-.3 0-.5 0-.8-1.3-2.2-2.2-3.9-2.2-2.2 0-4.1 1.6-4.5 3.7h-.1c-2.5 0-4.5 2-4.5 4.5 0 .5.1 1 .3 1.5-1.1 1-1.8 2.5-1.8 4.1 0 3.1 2.5 5.5 5.5 5.5 3.1 0 5.5-2.5 5.5-5.5 0-.1 0-.2 0-.2 1.5-.2 2.7-1.1 3.4-2.4h.4c2.5 0 4.5-2 4.5-4.5.2-2.5-1.8-4.5-4.3-4.5z" fill="#d371aa"/><g fill="#80c8bb"><circle cx="23" cy="27.5" r="4.6"/><circle cx="50.8" cy="27.5" r="4.6"/><path d="m57 73.6v-13.6c0-3.6-3.2-6.6-6.9-6.6l-12.1 12.8v7.5"/><path d="m17 73.6v-13.6c0-3.6 3.2-6.6 6.9-6.6l12.1 12.8v7.5"/><path d="m27.4 51.5 5.6-1.3v-8.6h8.3-7.7 7.4v8.6l6.1 1.3 2.7 3.6-9.5 8.1-10.4-1.6-4.8-5.6z"/></g></g><path d="m49 25c0 9.1-5.4 16.6-12 16.6s-12-7.4-12-16.6" fill="#3c3c3b"/><path d="m42.6 6.9-1.3 1.5h-3.9l-1.4 4.2-5-.6-1.6 5.8h-6.9c-.2 1-.3 2-.3 3 0 4.7.4 8.3 1.3 12.9v.2c1.2 6.5 6.9 11.3 13.4 11.3s12.3-4.7 13.5-11.2v-.2c.9-4.6 1.3-8.2 1.3-12.9.1-6.4-3.7-11.7-9.1-14z" fill="#80c8bb" stroke="#3c3c3b" stroke-miterlimit="10" stroke-width="2"/><ellipse cx="31.2" cy="24.8" fill="#3c3c3b" rx="1.8" ry="1.7"/><ellipse cx="43.7" cy="24.8" fill="#3c3c3b" rx="1.8" ry="1.7"/><path d="m39.9 22.4 5.6-.7 1.9 1.3" fill="none" stroke="#3c3c3b" stroke-linecap="round" stroke-miterlimit="10"/><path d="m34.7 22.4-5.6-.7-1.8 1.3" fill="none" stroke="#3c3c3b" stroke-linecap="round" stroke-miterlimit="10"/><path d="m39 28.6v2" fill="none" stroke="#3c3c3b" stroke-linecap="round" stroke-miterlimit="10" stroke-width="2"/><path d="m36 28.6v2" fill="none" stroke="#3c3c3b" stroke-linecap="round" stroke-miterlimit="10" stroke-width="2"/><path d="m33 38.6c0-3 1.8-3.9 3.9-3.9 2.2 0 3.9.9 3.9 3.9z" fill="#3c3c3b"/><g stroke="#3c3c3b" stroke-miterlimit="10"><path d="m33.5 27s-.4 3-5 3.2" fill="none" stroke-linecap="round"/><path d="m40.9 27s.4 3 5 3.2" fill="none" stroke-linecap="round"/><path d="m35.1 44.1c-.9 0-1.6.2-1.6-.6v-4.4h3v4.4c0 .8-.6.6-1.4.6z" fill="#e73234" stroke-linecap="round"/><path d="m29.4 4.7s-1 3.8 0 5.2" fill="none" stroke-linecap="round"/><path d="m27.3 11.6s-2.7.1-3.5 2" fill="none" stroke-linecap="round"/><path d="m37.7 5.2s-2.4.3-3.3 2.1" fill="none" stroke-linecap="round"/></g><path d="m49 73.2c-.5-2.5-.8-5-.8-7.7 0-5.8 1.3-9.1 3.6-14l-9.4-2.1v.4c0 3-2.4 5.4-5.4 5.4s-5.4-2.4-5.4-5.4c0-.1 0-.3 0-.4l-10.3 2.1c2.3 4.9 3.6 8.2 3.6 14 0 2.6-.3 5.2-.8 7.7" fill="#41ade3"/><path clip-path="url(#a)" d="m27.9 73.2c.4-2.3.6-4.8.6-7.2 0-6.2-1.2-9.9-3.5-15.1l-3.5.7c2.3 4.9 3.6 8.2 3.6 14 0 2.6-.3 5.2-.8 7.7h3.6z" fill="#fff"/><path clip-path="url(#b)" d="m45.4 73.2c-.4-2.3-.6-4.8-.6-7.2 0-6.2 1.2-9.9 3.5-15.1l3.5.7c-2.3 4.9-3.6 8.2-3.6 14 0 2.6.3 5.2.8 7.7h-3.6z" fill="#fff"/><ellipse clip-path="url(#c)" cx="37.1" cy="49.5" fill="#fff" rx="8.5" ry="8.7" stroke="#3c3c3b" stroke-miterlimit="10"/><path clip-path="url(#d)" d="m40.7 65.3c-.3.9-.6 1.9-.9 2.8-.2.6-.4 4.1-.7 4.6-.4.4-1 .7-1.5.6-1-.3-2.8-7.3-2.2-8.2.4-.7 1.2-1 1.8-1.5.8-.7 1.4-1.8 2.3-2.4.4-.3.9-.4 1.2-.1.2.3.1.7.1 1.1s.2.8.3 1.2c0 .5-.2 1.2-.4 1.9z" fill="#80c8bb" stroke="#3c3c3b" stroke-miterlimit="10" stroke-width="2"/><path d="m49 73.2c-.5-2.5-.8-5-.8-7.7 0-5.8 1.3-9.1 3.6-14l-9.4-2.1v.4c0 3-2.4 5.4-5.4 5.4s-5.4-2.4-5.4-5.4c0-.1 0-.3 0-.4l-10.3 2.1c2.3 4.9 3.6 8.2 3.6 14 0 2.6-.3 5.2-.8 7.7" fill="none" stroke="#3c3c3b" stroke-miterlimit="10" stroke-width="2"/></svg>